<?xml version="1.0" encoding="utf-8"?>
<!-- Generator: Adobe Illustrator 28.0.0, SVG Export Plug-In . SVG Version: 6.00 Build 0)  -->
<svg version="1.1" xmlns="http://www.w3.org/2000/svg" xmlns:xlink="http://www.w3.org/1999/xlink" x="0px" y="0px"
	 viewBox="0 0 1982 2200" style="enable-background:new 0 0 1982 2200;" xml:space="preserve">
<style type="text/css">
	.st0{fill:url(#SVGID_1_);}
	.st1{fill:#FFFFFF;}
	.st2{fill:#DDDDDD;}
</style>
<g id="background">
</g>
<g id="Objects">
	<g>
		<linearGradient id="SVGID_1_" gradientUnits="userSpaceOnUse" x1="253.8" y1="438.5652" x2="1725.573" y2="1500.172">
			<stop  offset="0" style="stop-color:#A6CC52"/>
			<stop  offset="1" style="stop-color:#4CD971"/>
		</linearGradient>
		<path class="st0" d="M991,46c0,0-236.8,392.7-800.9,416.2c0,0,0,217.6,0,359.4C190.1,1833.8,991,1952,991,1952
			s800.9-118.2,800.9-1130.4c0-141.9,0-359.4,0-359.4C1227.8,438.7,991,46,991,46z"/>
		<g>
			<path class="st1" d="M1197.6,956.8H784.4c-50.3,0-91.1,40.8-91.1,91.1v370.3c0,50.3,40.8,91.1,91.1,91.1h413.2
				c50.3,0,91.1-40.8,91.1-91.1v-370.3C1288.7,997.6,1247.9,956.8,1197.6,956.8z M952,1380.9l-107.8-107.8l40.2-40.2l60.1,60.1
				l146.9-207.8l46.4,32.8L952,1380.9z"/>
			<path class="st1" d="M861.2,769.7c0-71.6,58.2-129.8,129.8-129.8s129.8,58.2,129.8,129.8v139.5h57.2V769.7
				c0-103.3-83.8-187-187.1-187s-187.1,83.7-187.1,187v139.5h57.2V769.7z"/>
		</g>
		<ellipse class="st2" cx="991" cy="2097.8" rx="319.9" ry="56.2"/>
	</g>
</g>
</svg>
